<svg id="Capa_1" data-name="Capa 1" xmlns="http://www.w3.org/2000/svg" viewBox="0 0 720.54 797.74"><defs><style>.cls-1{fill:#ccaa06;}</style></defs><title>simpleLogo</title><path class="cls-1" d="M592.16,635.73a88.87,88.87,0,0,1-33.36-7.23,86.08,86.08,0,0,1-27.07-18.2,83.08,83.08,0,0,1-18-27.06,86.78,86.78,0,0,1-6.54-33.84,90.42,90.42,0,0,1,6.77-35,120.06,120.06,0,0,1,17.73-29.86,133.36,133.36,0,0,1,25.44-24A158.66,158.66,0,0,1,588,443a243.29,243.29,0,0,1,70.7-18.66,301.94,301.94,0,0,1,73,.46,169.65,169.65,0,0,1,65.57,21.94q30.57,17.73,47.37,49.93a128.92,128.92,0,0,1,14.23,44.1,160.6,160.6,0,0,1-.47,45.73,166.74,166.74,0,0,1-13.3,44.1,161,161,0,0,1-24.73,38.73,183.41,183.41,0,0,1-59.26,45.5A259.31,259.31,0,0,1,690.16,737a125.48,125.48,0,0,1,37.1,14q17,9.79,24,32.2A62.91,62.91,0,0,1,753.16,817a90.25,90.25,0,0,1-13.3,30.8,105.61,105.61,0,0,1-23.56,25,121.84,121.84,0,0,1-29.41,16.8,131.54,131.54,0,0,1-30.56,7.7,188.7,188.7,0,0,1-32.43,1.4A228.11,228.11,0,0,1,591.47,895a204.18,204.18,0,0,1-30.57-8.16,129.38,129.38,0,0,1-31-15.64,113,113,0,0,1-25.21-23.33,104.09,104.09,0,0,1-16.33-29.63,88.27,88.27,0,0,1-4.9-34.54,78.25,78.25,0,0,1,8.4-32.19,13.56,13.56,0,0,1,4-2.1c1.4-.47,2.72.08,4,1.63q2.33,2.81,0,6.07c-1.56,2.18-2.8,4-3.74,5.6a58.3,58.3,0,0,0-6.76,32,95.05,95.05,0,0,0,7.7,32A82.84,82.84,0,0,0,517,853.66a112.39,112.39,0,0,0,27.77,18.2,124.17,124.17,0,0,0,32.2,9.8,154.88,154.88,0,0,0,33.83,1.87,117.14,117.14,0,0,0,31-5.13,129.06,129.06,0,0,0,28.7-12.84A124.45,124.45,0,0,0,695.3,846,106.59,106.59,0,0,0,714,820.06a101.55,101.55,0,0,0,6.3-15.86,62.88,62.88,0,0,0,2.8-16.57,47.75,47.75,0,0,0-2.33-16.1,34.19,34.19,0,0,0-9.57-14.46,43.39,43.39,0,0,0-11.9-8.4,116.74,116.74,0,0,0-13.76-5.6,57.81,57.81,0,0,0-15.4-2.34,26,26,0,0,0-7.7.24,18.27,18.27,0,0,1-7.7-.24c-3.43-.62-5-2.17-4.67-4.66,0-2.8,1.55-4.2,4.67-4.2v-.47l1.4.47h4.66a165.07,165.07,0,0,0,19.6-1.17,152,152,0,0,0,19.14-3.5,156.38,156.38,0,0,0,60.19-30.8,160.67,160.67,0,0,0,42.24-53.67,213.56,213.56,0,0,0,20.3-65.33,149.05,149.05,0,0,0-7-67.2Q804,477.55,774.63,457a126.24,126.24,0,0,0-31.74-15.86,172.83,172.83,0,0,0-34.76-7.7,213.78,213.78,0,0,0-35.93-1.17A328.68,328.68,0,0,0,637,436a230.6,230.6,0,0,0-40.37,10.5,156.62,156.62,0,0,0-37.33,19.14,121.57,121.57,0,0,0-29.17,28.7,96.06,96.06,0,0,0-16.33,38.73,88.1,88.1,0,0,0,2.33,41.3,71.08,71.08,0,0,0,22.4,34.3,77.89,77.89,0,0,0,17,10.73,81.09,81.09,0,0,0,18.9,6.07c2.17.31,4.2.54,6.07.7s3.73.23,5.6.23c1.55,0,3.18-.07,4.9-.23a5.31,5.31,0,0,1,4.43,1.63,4.55,4.55,0,0,1-3.27,7.93Z" transform="translate(-139.73 -101.13)"/><path class="cls-1" d="M403.4,632.93a4.4,4.4,0,0,1,1.17-5.13,5.33,5.33,0,0,1,4.43-1.63c1.72.16,3.35.23,4.9.23,1.87,0,3.74-.07,5.6-.23s3.89-.39,6.07-.7a81.09,81.09,0,0,0,18.9-6.07,78.37,78.37,0,0,0,17-10.73,71.15,71.15,0,0,0,22.4-34.3,88.1,88.1,0,0,0,2.33-41.3,96.06,96.06,0,0,0-16.33-38.73,121.57,121.57,0,0,0-29.17-28.7A156.62,156.62,0,0,0,403.4,446.5,230.73,230.73,0,0,0,363,436a329.14,329.14,0,0,0-35.24-3.73,213.78,213.78,0,0,0-35.93,1.17,172.93,172.93,0,0,0-34.77,7.7A126.34,126.34,0,0,0,225.37,457q-29.4,20.55-40.6,53.2a149.19,149.19,0,0,0-7,67.2,213.83,213.83,0,0,0,20.3,65.33A160.77,160.77,0,0,0,240.3,696.4a156.42,156.42,0,0,0,60.2,30.8,151.67,151.67,0,0,0,19.14,3.5,165.07,165.07,0,0,0,19.6,1.17h4.66l1.4-.47v.47c3.12,0,4.67,1.4,4.67,4.2.31,2.49-1.24,4-4.67,4.66a18.27,18.27,0,0,1-7.7.24,26,26,0,0,0-7.7-.24,57.81,57.81,0,0,0-15.4,2.34,116.74,116.74,0,0,0-13.76,5.6,43.39,43.39,0,0,0-11.9,8.4,34.19,34.19,0,0,0-9.57,14.46,47.5,47.5,0,0,0-2.33,16.1,62.88,62.88,0,0,0,2.8,16.57,101.55,101.55,0,0,0,6.3,15.86A106.59,106.59,0,0,0,304.7,846a124.45,124.45,0,0,0,24.74,19.6,129.06,129.06,0,0,0,28.7,12.84,117.14,117.14,0,0,0,31,5.13A154.88,154.88,0,0,0,423,881.66a124.17,124.17,0,0,0,32.2-9.8A112.39,112.39,0,0,0,483,853.66,82.84,82.84,0,0,0,503,826.6a95.05,95.05,0,0,0,7.7-32,58.3,58.3,0,0,0-6.76-32c-.94-1.56-2.18-3.42-3.74-5.6s-1.55-4.2,0-6.07c1.25-1.55,2.57-2.1,4-1.63a13.56,13.56,0,0,1,4,2.1,78.25,78.25,0,0,1,8.4,32.19,88.27,88.27,0,0,1-4.9,34.54,103.87,103.87,0,0,1-16.34,29.63,112.9,112.9,0,0,1-25.2,23.33,129.38,129.38,0,0,1-31,15.64A204.38,204.38,0,0,1,408.54,895a228.42,228.42,0,0,1-32.44,3.74,188.7,188.7,0,0,1-32.43-1.4,131.75,131.75,0,0,1-30.57-7.7,122,122,0,0,1-29.4-16.8,105.61,105.61,0,0,1-23.56-25,90.25,90.25,0,0,1-13.3-30.8,63,63,0,0,1,1.86-33.83q7-22.4,24-32.2a125.48,125.48,0,0,1,37.1-14,259.31,259.31,0,0,1-70.94-22.17,183.3,183.3,0,0,1-59.26-45.5,161,161,0,0,1-24.73-38.73,166.74,166.74,0,0,1-13.3-44.1,160.6,160.6,0,0,1-.47-45.73,128.92,128.92,0,0,1,14.23-44.1q16.8-32.21,47.37-49.93A169.66,169.66,0,0,1,268.3,424.8a302,302,0,0,1,73-.46A243.14,243.14,0,0,1,412,443a158.15,158.15,0,0,1,30.8,17.5,133.36,133.36,0,0,1,25.44,24A120.37,120.37,0,0,1,486,514.4a90.61,90.61,0,0,1,6.77,35,86.78,86.78,0,0,1-6.54,33.84,83.08,83.08,0,0,1-18,27.06,86.08,86.08,0,0,1-27.07,18.2,88.88,88.88,0,0,1-33.37,7.23A4.37,4.37,0,0,1,403.4,632.93Z" transform="translate(-139.73 -101.13)"/><path class="cls-1" d="M407.83,364.27a88.88,88.88,0,0,1,33.37,7.23,86.08,86.08,0,0,1,27.07,18.2,83,83,0,0,1,18,27.07,86.7,86.7,0,0,1,6.54,33.83,90.61,90.61,0,0,1-6.77,35,120.37,120.37,0,0,1-17.73,29.86,133.36,133.36,0,0,1-25.44,24A158.15,158.15,0,0,1,412,557a243.14,243.14,0,0,1-70.69,18.66,302,302,0,0,1-73-.46,169.66,169.66,0,0,1-65.56-21.94q-30.56-17.73-47.37-49.93a128.92,128.92,0,0,1-14.23-44.1,160.6,160.6,0,0,1,.47-45.73,166.85,166.85,0,0,1,13.3-44.1,161,161,0,0,1,24.73-38.73,183.3,183.3,0,0,1,59.26-45.5A259.31,259.31,0,0,1,309.84,263a125.48,125.48,0,0,1-37.1-14q-17-9.8-24-32.2A63,63,0,0,1,246.84,183a90.33,90.33,0,0,1,13.3-30.8,105.61,105.61,0,0,1,23.56-25,122,122,0,0,1,29.4-16.8,131.75,131.75,0,0,1,30.57-7.7,188.7,188.7,0,0,1,32.43-1.4A228.42,228.42,0,0,1,408.54,105a204.38,204.38,0,0,1,30.56,8.16,129.38,129.38,0,0,1,31,15.64,112.9,112.9,0,0,1,25.2,23.33,103.87,103.87,0,0,1,16.34,29.63,88.25,88.25,0,0,1,4.9,34.53,78.26,78.26,0,0,1-8.4,32.2,13.56,13.56,0,0,1-4,2.1c-1.4.47-2.72-.08-4-1.63q-2.33-2.81,0-6.07c1.56-2.18,2.8-4,3.74-5.6a58.3,58.3,0,0,0,6.76-32,95.11,95.11,0,0,0-7.7-32A82.84,82.84,0,0,0,483,146.34a112.39,112.39,0,0,0-27.77-18.2,124.17,124.17,0,0,0-32.2-9.8,154.88,154.88,0,0,0-33.83-1.87,117.14,117.14,0,0,0-31,5.13,129.06,129.06,0,0,0-28.7,12.84A124.81,124.81,0,0,0,304.7,154,106.78,106.78,0,0,0,286,179.94a101.55,101.55,0,0,0-6.3,15.86,62.88,62.88,0,0,0-2.8,16.57,47.5,47.5,0,0,0,2.33,16.1,34.19,34.19,0,0,0,9.57,14.46,43.39,43.39,0,0,0,11.9,8.4,116.74,116.74,0,0,0,13.76,5.6,57.81,57.81,0,0,0,15.4,2.34,26,26,0,0,0,7.7-.24,18.27,18.27,0,0,1,7.7.24c3.43.62,5,2.17,4.67,4.66,0,2.8-1.55,4.2-4.67,4.2v.47l-1.4-.47h-4.66a165.07,165.07,0,0,0-19.6,1.17,151.67,151.67,0,0,0-19.14,3.5,156.42,156.42,0,0,0-60.2,30.8,160.77,160.77,0,0,0-42.23,53.67,213.83,213.83,0,0,0-20.3,65.33,149.19,149.19,0,0,0,7,67.2Q196,522.45,225.37,543a126.34,126.34,0,0,0,31.73,15.86,172.93,172.93,0,0,0,34.77,7.7,213.78,213.78,0,0,0,35.93,1.17A329.14,329.14,0,0,0,363,564a230.73,230.73,0,0,0,40.36-10.5,156.62,156.62,0,0,0,37.33-19.14,121.57,121.57,0,0,0,29.17-28.7,96.06,96.06,0,0,0,16.33-38.73,88.1,88.1,0,0,0-2.33-41.3,71.2,71.2,0,0,0-22.4-34.3,78.37,78.37,0,0,0-17-10.73,81.09,81.09,0,0,0-18.9-6.07q-3.27-.46-6.07-.7c-1.86-.16-3.73-.23-5.6-.23-1.55,0-3.18.07-4.9.23a5.33,5.33,0,0,1-4.43-1.63,4.55,4.55,0,0,1,3.26-7.93Z" transform="translate(-139.73 -101.13)"/><path class="cls-1" d="M596.6,367.07a4.4,4.4,0,0,1-1.17,5.13,5.31,5.31,0,0,1-4.43,1.63c-1.72-.16-3.35-.23-4.9-.23-1.87,0-3.74.07-5.6.23s-3.9.39-6.07.7a81.09,81.09,0,0,0-18.9,6.07,77.89,77.89,0,0,0-17,10.73,71.13,71.13,0,0,0-22.4,34.3,88.1,88.1,0,0,0-2.33,41.3,96.06,96.06,0,0,0,16.33,38.73,121.57,121.57,0,0,0,29.17,28.7A156.62,156.62,0,0,0,596.6,553.5,230.6,230.6,0,0,0,637,564a328.68,328.68,0,0,0,35.23,3.73,213.78,213.78,0,0,0,35.93-1.17,172.83,172.83,0,0,0,34.76-7.7A126.24,126.24,0,0,0,774.63,543q29.4-20.55,40.6-53.2a149.05,149.05,0,0,0,7-67.2,213.56,213.56,0,0,0-20.3-65.33,160.67,160.67,0,0,0-42.24-53.67,156.38,156.38,0,0,0-60.19-30.8,152,152,0,0,0-19.14-3.5,165.07,165.07,0,0,0-19.6-1.17H656.1l-1.4.47v-.47c-3.12,0-4.67-1.4-4.67-4.2-.31-2.49,1.24-4,4.67-4.66a18.27,18.27,0,0,1,7.7-.24,26,26,0,0,0,7.7.24,57.81,57.81,0,0,0,15.4-2.34,116.74,116.74,0,0,0,13.76-5.6,43.39,43.39,0,0,0,11.9-8.4,34.19,34.19,0,0,0,9.57-14.46,47.75,47.75,0,0,0,2.33-16.1,62.88,62.88,0,0,0-2.8-16.57,101.55,101.55,0,0,0-6.3-15.86A106.78,106.78,0,0,0,695.3,154a124.81,124.81,0,0,0-24.74-19.6,129.06,129.06,0,0,0-28.7-12.84,117.14,117.14,0,0,0-31-5.13A154.88,154.88,0,0,0,577,118.34a124.17,124.17,0,0,0-32.2,9.8A112.39,112.39,0,0,0,517,146.34,82.84,82.84,0,0,0,497,173.4a95.11,95.11,0,0,0-7.7,32,58.3,58.3,0,0,0,6.76,32c.94,1.56,2.18,3.42,3.74,5.6s1.55,4.2,0,6.07c-1.25,1.55-2.57,2.1-4,1.63a13.56,13.56,0,0,1-4-2.1,78.26,78.26,0,0,1-8.4-32.2,88.25,88.25,0,0,1,4.9-34.53,104.09,104.09,0,0,1,16.33-29.63,113,113,0,0,1,25.21-23.33,129.38,129.38,0,0,1,31-15.64A204.18,204.18,0,0,1,591.47,105a228.11,228.11,0,0,1,32.43-3.74,188.7,188.7,0,0,1,32.43,1.4,131.54,131.54,0,0,1,30.56,7.7,121.84,121.84,0,0,1,29.41,16.8,105.61,105.61,0,0,1,23.56,25,90.33,90.33,0,0,1,13.3,30.8,62.91,62.91,0,0,1-1.87,33.83q-7,22.39-24,32.2a125.48,125.48,0,0,1-37.1,14,259.31,259.31,0,0,1,70.94,22.17,183.41,183.41,0,0,1,59.26,45.5,161,161,0,0,1,24.73,38.73,166.85,166.85,0,0,1,13.3,44.1,160.6,160.6,0,0,1,.47,45.73,128.92,128.92,0,0,1-14.23,44.1q-16.8,32.2-47.37,49.93a169.65,169.65,0,0,1-65.57,21.94,301.94,301.94,0,0,1-73,.46A243.29,243.29,0,0,1,588,557a158.66,158.66,0,0,1-30.79-17.5,133.36,133.36,0,0,1-25.44-24A120.06,120.06,0,0,1,514,485.6a90.42,90.42,0,0,1-6.77-35,86.7,86.7,0,0,1,6.54-33.83,83,83,0,0,1,18-27.07,86.08,86.08,0,0,1,27.07-18.2,88.87,88.87,0,0,1,33.36-7.23A4.38,4.38,0,0,1,596.6,367.07Z" transform="translate(-139.73 -101.13)"/></svg>